<? xml version = "1.0" encoding = "UTF-8" ?>
  <svg width="37px" height="37px" viewBox="0 0 37 37" version="1.1" xmlns="http://www.w3.org/2000/svg" xmlns: xlink="http://www.w3.org/1999/xlink">
    <!-- Generator: Sketch 48.2 (47327) - http://www.bohemiancoding.com/sketch -->
    <title>view key button</title>
    <desc>Created with Sketch.</desc>
    <defs></defs>
    <g id="Symbols" stroke="none" stroke-width="1" fill="none" fill-rule="evenodd">
      <g id="view-key-button">
        <circle id="Oval" fill="#D8D8D8" cx="18.5" cy="18.5" r="18.5"></circle>
        <g id="key" transform="translate(18.500000, 19.000000) scale(-1, -1) rotate(45.000000) translate(-18.500000, -19.000000) translate(9.000000, 10.000000)" fill="#4A4A4A" fill-rule="nonzero" stroke="#4A4A4A">
          <path d="M13.4985816,0.000628038138 C12.4451269,0.017972521 11.4381939,0.387809793 10.6663919,1.148088 C9.06254439,2.72798871 9.18316497,5.31290292 10.6663919,7.20037682 L4.38532599,13.3651617 L2.51242635,11.5202261 L1.46177533,12.55519 L3.33467497,14.4001256 L2.92355066,14.8051115 L1.05065102,12.9601759 L0,13.9951397 L1.87289964,15.8400754 L0.730887665,16.9875353 L1.75869844,18 L11.6942026,8.2128415 C13.6102853,9.67392324 16.2343796,9.79274285 17.8382271,8.2128415 C19.6023465,6.47506261 19.2897773,3.52293263 17.358582,1.62057151 C16.2722849,0.550493588 14.8530238,-0.0216719598 13.4985816,0.000628038138 Z M13.8868656,1.4405778 C14.7253582,1.51224654 15.6014893,1.91464281 16.3307713,2.63303619 C17.7893358,4.06982266 17.914292,6.11298292 16.8104163,7.20037682 C15.7065406,8.28777072 13.6324115,8.16468022 12.1738477,6.72789331 C10.7152831,5.29110712 10.5903262,3.24794715 11.6942026,2.16055267 C12.2461405,1.61685544 13.048373,1.36890905 13.8868656,1.4405778 Z" id="Shape"></path>
        </g>
      </g>
    </g>
  </svg>